<mxfile host="app.diagrams.net" agent="Mozilla/5.0 (X11; Linux x86_64) AppleWebKit/537.36 (KHTML, like Gecko) Chrome/119.0.0.0 Safari/537.36" version="24.8.1">
  <diagram name="PÃ¡gina-1" id="0jVI6-Q2J5YCP7g-TxaG">
    <mxGraphModel dx="2074" dy="1164" grid="1" gridSize="10" guides="1" tooltips="1" connect="1" arrows="1" fold="1" page="1" pageScale="1" pageWidth="827" pageHeight="1169" math="0" shadow="0">
      <root>
        <mxCell id="0" />
        <mxCell id="1" parent="0" />
        <mxCell id="c6H3qvOc2Wh3on1caGfx-142" value="" style="endArrow=none;html=1;rounded=1;strokeWidth=10;fontSize=16;fillColor=#f8cecc;strokeColor=#b85450;" parent="1" edge="1">
          <mxGeometry width="50" height="50" relative="1" as="geometry">
            <mxPoint x="858" y="398.0000000000001" as="sourcePoint" />
            <mxPoint x="794" y="380" as="targetPoint" />
            <Array as="points">
              <mxPoint x="858" y="380" />
            </Array>
          </mxGeometry>
        </mxCell>
        <mxCell id="c6H3qvOc2Wh3on1caGfx-127" value="" style="endArrow=none;html=1;rounded=1;strokeWidth=10;entryX=0;entryY=0.5;entryDx=0;entryDy=0;fillColor=#f8cecc;strokeColor=#b85450;" parent="1" target="c6H3qvOc2Wh3on1caGfx-5" edge="1">
          <mxGeometry width="50" height="50" relative="1" as="geometry">
            <mxPoint x="250" y="380" as="sourcePoint" />
            <mxPoint x="346" y="381" as="targetPoint" />
          </mxGeometry>
        </mxCell>
        <mxCell id="c6H3qvOc2Wh3on1caGfx-136" value="" style="endArrow=none;html=1;rounded=1;strokeWidth=10;fontSize=16;fillColor=#f8cecc;strokeColor=#b85450;" parent="1" edge="1">
          <mxGeometry width="50" height="50" relative="1" as="geometry">
            <mxPoint x="346" y="410" as="sourcePoint" />
            <mxPoint x="250" y="520" as="targetPoint" />
            <Array as="points">
              <mxPoint x="346" y="520" />
            </Array>
          </mxGeometry>
        </mxCell>
        <mxCell id="c6H3qvOc2Wh3on1caGfx-132" value="" style="endArrow=none;html=1;rounded=1;strokeWidth=10;fontSize=16;fillColor=#f8cecc;strokeColor=#b85450;" parent="1" edge="1">
          <mxGeometry width="50" height="50" relative="1" as="geometry">
            <mxPoint x="346" y="340" as="sourcePoint" />
            <mxPoint x="250" y="240" as="targetPoint" />
            <Array as="points">
              <mxPoint x="346" y="240" />
            </Array>
          </mxGeometry>
        </mxCell>
        <mxCell id="c6H3qvOc2Wh3on1caGfx-20" value="" style="endArrow=none;html=1;rounded=1;strokeWidth=10;fontSize=16;entryX=1;entryY=0.5;entryDx=0;entryDy=0;exitX=0;exitY=0.5;exitDx=0;exitDy=0;fillColor=#f8cecc;strokeColor=#b85450;" parent="1" source="c6H3qvOc2Wh3on1caGfx-21" target="c6H3qvOc2Wh3on1caGfx-16" edge="1">
          <mxGeometry width="50" height="50" relative="1" as="geometry">
            <mxPoint x="764" y="412" as="sourcePoint" />
            <mxPoint x="672" y="452" as="targetPoint" />
            <Array as="points">
              <mxPoint x="692" y="380" />
              <mxPoint x="692" y="450" />
            </Array>
          </mxGeometry>
        </mxCell>
        <mxCell id="c6H3qvOc2Wh3on1caGfx-19" value="" style="endArrow=none;html=1;rounded=1;strokeWidth=10;fontSize=16;entryX=1;entryY=0.5;entryDx=0;entryDy=0;exitX=0;exitY=0.5;exitDx=0;exitDy=0;fillColor=#f8cecc;strokeColor=#b85450;" parent="1" source="c6H3qvOc2Wh3on1caGfx-21" target="c6H3qvOc2Wh3on1caGfx-15" edge="1">
          <mxGeometry width="50" height="50" relative="1" as="geometry">
            <mxPoint x="764" y="360" as="sourcePoint" />
            <mxPoint x="672" y="322" as="targetPoint" />
            <Array as="points">
              <mxPoint x="692" y="380" />
              <mxPoint x="692" y="322" />
            </Array>
          </mxGeometry>
        </mxCell>
        <mxCell id="c6H3qvOc2Wh3on1caGfx-12" value="" style="endArrow=none;html=1;rounded=1;strokeWidth=10;fontSize=16;exitX=1;exitY=0.5;exitDx=0;exitDy=0;fillColor=#f8cecc;strokeColor=#b85450;entryX=0;entryY=0.5;entryDx=0;entryDy=0;" parent="1" target="c6H3qvOc2Wh3on1caGfx-16" edge="1">
          <mxGeometry width="50" height="50" relative="1" as="geometry">
            <mxPoint x="530.0000000000127" y="380" as="sourcePoint" />
            <mxPoint x="692" y="450" as="targetPoint" />
            <Array as="points">
              <mxPoint x="592" y="380" />
              <mxPoint x="592" y="450" />
            </Array>
          </mxGeometry>
        </mxCell>
        <mxCell id="c6H3qvOc2Wh3on1caGfx-14" value="" style="endArrow=none;html=1;rounded=1;strokeWidth=10;fontSize=16;fillColor=#f8cecc;strokeColor=#b85450;entryX=0;entryY=0.5;entryDx=0;entryDy=0;exitX=1;exitY=0.5;exitDx=0;exitDy=0;" parent="1" source="c6H3qvOc2Wh3on1caGfx-5" target="c6H3qvOc2Wh3on1caGfx-15" edge="1">
          <mxGeometry width="50" height="50" relative="1" as="geometry">
            <mxPoint x="530.0000000000127" y="380" as="sourcePoint" />
            <mxPoint x="692" y="320" as="targetPoint" />
            <Array as="points">
              <mxPoint x="592" y="380" />
              <mxPoint x="592" y="322" />
            </Array>
          </mxGeometry>
        </mxCell>
        <mxCell id="c6H3qvOc2Wh3on1caGfx-1" value="" style="group" parent="1" vertex="1" connectable="0">
          <mxGeometry x="161" y="320" width="90" height="100" as="geometry" />
        </mxCell>
        <mxCell id="c6H3qvOc2Wh3on1caGfx-2" value="" style="shape=note;whiteSpace=wrap;html=1;backgroundOutline=1;darkOpacity=0.05;rounded=1;size=20;strokeWidth=2;" parent="c6H3qvOc2Wh3on1caGfx-1" vertex="1">
          <mxGeometry x="5" width="80" height="100" as="geometry" />
        </mxCell>
        <mxCell id="c6H3qvOc2Wh3on1caGfx-3" value="&lt;font size=&quot;1&quot; face=&quot;Maven Pro&quot; color=&quot;#ffffff&quot;&gt;&lt;b style=&quot;font-size: 18px;&quot;&gt;Sumstats&lt;/b&gt;&lt;/font&gt;" style="rounded=1;whiteSpace=wrap;html=1;strokeWidth=2;fillColor=#000000;" parent="c6H3qvOc2Wh3on1caGfx-1" vertex="1">
          <mxGeometry y="40" width="90" height="40" as="geometry" />
        </mxCell>
        <mxCell id="c6H3qvOc2Wh3on1caGfx-4" value="" style="endArrow=none;html=1;rounded=1;strokeWidth=10;" parent="1" edge="1">
          <mxGeometry width="50" height="50" relative="1" as="geometry">
            <mxPoint x="304" y="380" as="sourcePoint" />
            <mxPoint x="304" y="380" as="targetPoint" />
          </mxGeometry>
        </mxCell>
        <mxCell id="c6H3qvOc2Wh3on1caGfx-7" value="GSMR" style="text;html=1;align=center;verticalAlign=middle;whiteSpace=wrap;rounded=0;fontSize=18;fontStyle=1;fontFamily=Maven Pro;fontSource=https%3A%2F%2Ffonts.googleapis.com%2Fcss%3Ffamily%3DMaven%2BPro;" parent="1" vertex="1">
          <mxGeometry x="384" y="400" width="60" height="30" as="geometry" />
        </mxCell>
        <mxCell id="c6H3qvOc2Wh3on1caGfx-10" value="TwoSampleMR" style="text;html=1;align=center;verticalAlign=middle;whiteSpace=wrap;rounded=0;fontSize=18;fontStyle=1;fontFamily=Maven Pro;fontSource=https%3A%2F%2Ffonts.googleapis.com%2Fcss%3Ffamily%3DMaven%2BPro;" parent="1" vertex="1">
          <mxGeometry x="612" y="272" width="60" height="30" as="geometry" />
        </mxCell>
        <mxCell id="c6H3qvOc2Wh3on1caGfx-15" value="" style="ellipse;whiteSpace=wrap;html=1;aspect=fixed;rounded=1;rotation=0;strokeWidth=5;fillColor=#FFFFFF;strokeColor=#000000;" parent="1" vertex="1">
          <mxGeometry x="622" y="302" width="40" height="40" as="geometry" />
        </mxCell>
        <mxCell id="c6H3qvOc2Wh3on1caGfx-16" value="" style="ellipse;whiteSpace=wrap;html=1;aspect=fixed;rounded=1;rotation=0;strokeWidth=5;fillColor=#FFFFFF;strokeColor=#000000;" parent="1" vertex="1">
          <mxGeometry x="622" y="430" width="40" height="40" as="geometry" />
        </mxCell>
        <mxCell id="c6H3qvOc2Wh3on1caGfx-17" value="Coloc" style="text;html=1;align=center;verticalAlign=middle;whiteSpace=wrap;rounded=0;fontSize=18;fontStyle=1;fontFamily=Maven Pro;fontSource=https%3A%2F%2Ffonts.googleapis.com%2Fcss%3Ffamily%3DMaven%2BPro;" parent="1" vertex="1">
          <mxGeometry x="612" y="470" width="60" height="30" as="geometry" />
        </mxCell>
        <mxCell id="c6H3qvOc2Wh3on1caGfx-21" value="" style="ellipse;whiteSpace=wrap;html=1;aspect=fixed;rounded=1;rotation=0;strokeWidth=5;fillColor=#FFFFFF;strokeColor=#000000;" parent="1" vertex="1">
          <mxGeometry x="752" y="360" width="40" height="40" as="geometry" />
        </mxCell>
        <mxCell id="c6H3qvOc2Wh3on1caGfx-22" value="Generate Report" style="text;html=1;align=center;verticalAlign=middle;whiteSpace=wrap;rounded=0;fontSize=18;fontStyle=1;fontFamily=Maven Pro;fontSource=https%3A%2F%2Ffonts.googleapis.com%2Fcss%3Ffamily%3DMaven%2BPro;" parent="1" vertex="1">
          <mxGeometry x="742" y="410" width="60" height="30" as="geometry" />
        </mxCell>
        <mxCell id="c6H3qvOc2Wh3on1caGfx-25" value="" style="group" parent="1" vertex="1" connectable="0">
          <mxGeometry x="160" y="180" width="90" height="100" as="geometry" />
        </mxCell>
        <mxCell id="c6H3qvOc2Wh3on1caGfx-26" value="" style="shape=note;whiteSpace=wrap;html=1;backgroundOutline=1;darkOpacity=0.05;rounded=1;size=20;strokeWidth=2;" parent="c6H3qvOc2Wh3on1caGfx-25" vertex="1">
          <mxGeometry x="4.5" width="72" height="90.90909090909092" as="geometry" />
        </mxCell>
        <mxCell id="c6H3qvOc2Wh3on1caGfx-27" value="&lt;font data-font-src=&quot;https://fonts.googleapis.com/css?family=Maven+Pro&quot; face=&quot;Maven Pro&quot; color=&quot;#ffffff&quot;&gt;&lt;b&gt;&lt;font style=&quot;font-size: 20px;&quot;&gt;Fastq&lt;/font&gt;&lt;/b&gt;&lt;/font&gt;" style="rounded=1;whiteSpace=wrap;html=1;strokeWidth=2;fillColor=#000000;" parent="c6H3qvOc2Wh3on1caGfx-25" vertex="1">
          <mxGeometry y="36.36363636363637" width="81" height="36.36363636363637" as="geometry" />
        </mxCell>
        <mxCell id="c6H3qvOc2Wh3on1caGfx-28" value="" style="shape=note;whiteSpace=wrap;html=1;backgroundOutline=1;darkOpacity=0.05;rounded=1;size=20;strokeWidth=2;" parent="c6H3qvOc2Wh3on1caGfx-25" vertex="1">
          <mxGeometry x="9" y="4.545454545454546" width="72" height="90.90909090909092" as="geometry" />
        </mxCell>
        <mxCell id="c6H3qvOc2Wh3on1caGfx-29" value="&lt;font data-font-src=&quot;https://fonts.googleapis.com/css?family=Maven+Pro&quot; face=&quot;Maven Pro&quot; color=&quot;#ffffff&quot;&gt;&lt;b&gt;&lt;font style=&quot;font-size: 20px;&quot;&gt;Fastq&lt;/font&gt;&lt;/b&gt;&lt;/font&gt;" style="rounded=1;whiteSpace=wrap;html=1;strokeWidth=2;fillColor=#000000;" parent="c6H3qvOc2Wh3on1caGfx-25" vertex="1">
          <mxGeometry x="4.5" y="40.909090909090914" width="81" height="36.36363636363637" as="geometry" />
        </mxCell>
        <mxCell id="c6H3qvOc2Wh3on1caGfx-30" value="" style="shape=note;whiteSpace=wrap;html=1;backgroundOutline=1;darkOpacity=0.05;rounded=1;size=20;strokeWidth=2;" parent="c6H3qvOc2Wh3on1caGfx-25" vertex="1">
          <mxGeometry x="13.500000000000002" y="9.090909090909092" width="72" height="90.90909090909092" as="geometry" />
        </mxCell>
        <mxCell id="c6H3qvOc2Wh3on1caGfx-31" value="&lt;font data-font-src=&quot;https://fonts.googleapis.com/css?family=Maven+Pro&quot; face=&quot;Maven Pro&quot; color=&quot;#ffffff&quot;&gt;&lt;b&gt;&lt;font style=&quot;font-size: 18px;&quot;&gt;Sumstats&lt;/font&gt;&lt;/b&gt;&lt;/font&gt;" style="rounded=1;whiteSpace=wrap;html=1;strokeWidth=2;fillColor=#000000;" parent="c6H3qvOc2Wh3on1caGfx-25" vertex="1">
          <mxGeometry x="9" y="45.45454545454546" width="81" height="36.36363636363637" as="geometry" />
        </mxCell>
        <mxCell id="c6H3qvOc2Wh3on1caGfx-32" value="" style="group" parent="1" vertex="1" connectable="0">
          <mxGeometry x="161" y="459" width="89" height="101" as="geometry" />
        </mxCell>
        <mxCell id="c6H3qvOc2Wh3on1caGfx-33" value="" style="shape=note;whiteSpace=wrap;html=1;backgroundOutline=1;darkOpacity=0.05;rounded=1;size=20;strokeWidth=2;" parent="c6H3qvOc2Wh3on1caGfx-32" vertex="1">
          <mxGeometry x="4.45" width="71.2" height="91.81818181818183" as="geometry" />
        </mxCell>
        <mxCell id="c6H3qvOc2Wh3on1caGfx-34" value="&lt;font data-font-src=&quot;https://fonts.googleapis.com/css?family=Maven+Pro&quot; face=&quot;Maven Pro&quot; color=&quot;#ffffff&quot;&gt;&lt;b&gt;&lt;font style=&quot;font-size: 20px;&quot;&gt;Fastq&lt;/font&gt;&lt;/b&gt;&lt;/font&gt;" style="rounded=1;whiteSpace=wrap;html=1;strokeWidth=2;fillColor=#000000;" parent="c6H3qvOc2Wh3on1caGfx-32" vertex="1">
          <mxGeometry y="35.80909090909091" width="80.1" height="36.72727272727273" as="geometry" />
        </mxCell>
        <mxCell id="c6H3qvOc2Wh3on1caGfx-35" value="" style="shape=note;whiteSpace=wrap;html=1;backgroundOutline=1;darkOpacity=0.05;rounded=1;size=20;strokeWidth=2;" parent="c6H3qvOc2Wh3on1caGfx-32" vertex="1">
          <mxGeometry x="8.9" y="4.590909090909091" width="71.2" height="91.81818181818183" as="geometry" />
        </mxCell>
        <mxCell id="c6H3qvOc2Wh3on1caGfx-36" value="&lt;font data-font-src=&quot;https://fonts.googleapis.com/css?family=Maven+Pro&quot; face=&quot;Maven Pro&quot; color=&quot;#ffffff&quot;&gt;&lt;b&gt;&lt;font style=&quot;font-size: 20px;&quot;&gt;Fastq&lt;/font&gt;&lt;/b&gt;&lt;/font&gt;" style="rounded=1;whiteSpace=wrap;html=1;strokeWidth=2;fillColor=#000000;" parent="c6H3qvOc2Wh3on1caGfx-32" vertex="1">
          <mxGeometry x="4.45" y="40.4" width="80.1" height="36.72727272727273" as="geometry" />
        </mxCell>
        <mxCell id="c6H3qvOc2Wh3on1caGfx-37" value="" style="shape=note;whiteSpace=wrap;html=1;backgroundOutline=1;darkOpacity=0.05;rounded=1;size=20;strokeWidth=2;" parent="c6H3qvOc2Wh3on1caGfx-32" vertex="1">
          <mxGeometry x="13.35" y="9.181818181818182" width="71.2" height="91.81818181818183" as="geometry" />
        </mxCell>
        <mxCell id="c6H3qvOc2Wh3on1caGfx-38" value="&lt;font data-font-src=&quot;https://fonts.googleapis.com/css?family=Maven+Pro&quot; face=&quot;Maven Pro&quot; color=&quot;#ffffff&quot;&gt;&lt;b&gt;&lt;font style=&quot;font-size: 18px;&quot;&gt;bfiles&lt;/font&gt;&lt;/b&gt;&lt;/font&gt;" style="rounded=1;whiteSpace=wrap;html=1;strokeWidth=2;fillColor=#000000;" parent="c6H3qvOc2Wh3on1caGfx-32" vertex="1">
          <mxGeometry x="8.9" y="44.99090909090909" width="80.1" height="36.72727272727273" as="geometry" />
        </mxCell>
        <mxCell id="c6H3qvOc2Wh3on1caGfx-39" value="" style="group" parent="1" vertex="1" connectable="0">
          <mxGeometry x="948" y="246" width="90" height="100" as="geometry" />
        </mxCell>
        <mxCell id="c6H3qvOc2Wh3on1caGfx-40" value="" style="shape=note;whiteSpace=wrap;html=1;backgroundOutline=1;darkOpacity=0.05;rounded=1;size=20;strokeWidth=2;" parent="c6H3qvOc2Wh3on1caGfx-39" vertex="1">
          <mxGeometry x="5" width="80" height="100" as="geometry" />
        </mxCell>
        <mxCell id="c6H3qvOc2Wh3on1caGfx-41" value="&lt;font data-font-src=&quot;https://fonts.googleapis.com/css?family=Maven+Pro&quot; face=&quot;Maven Pro&quot; color=&quot;#ffffff&quot;&gt;&lt;b&gt;&lt;font style=&quot;font-size: 20px;&quot;&gt;HTML&lt;/font&gt;&lt;/b&gt;&lt;/font&gt;" style="rounded=1;whiteSpace=wrap;html=1;strokeWidth=2;fillColor=#000000;" parent="c6H3qvOc2Wh3on1caGfx-39" vertex="1">
          <mxGeometry y="40" width="90" height="40" as="geometry" />
        </mxCell>
        <mxCell id="c6H3qvOc2Wh3on1caGfx-42" value="" style="group" parent="1" vertex="1" connectable="0">
          <mxGeometry x="952" y="391" width="90" height="100" as="geometry" />
        </mxCell>
        <mxCell id="c6H3qvOc2Wh3on1caGfx-43" value="" style="shape=note;whiteSpace=wrap;html=1;backgroundOutline=1;darkOpacity=0.05;rounded=1;size=20;strokeWidth=2;" parent="c6H3qvOc2Wh3on1caGfx-42" vertex="1">
          <mxGeometry x="5" width="80" height="100" as="geometry" />
        </mxCell>
        <mxCell id="c6H3qvOc2Wh3on1caGfx-44" value="&lt;font data-font-src=&quot;https://fonts.googleapis.com/css?family=Maven+Pro&quot; face=&quot;Maven Pro&quot; color=&quot;#ffffff&quot;&gt;&lt;b&gt;&lt;font style=&quot;font-size: 20px;&quot;&gt;CSV&lt;/font&gt;&lt;/b&gt;&lt;/font&gt;" style="rounded=1;whiteSpace=wrap;html=1;strokeWidth=2;fillColor=#000000;" parent="c6H3qvOc2Wh3on1caGfx-42" vertex="1">
          <mxGeometry y="40" width="90" height="40" as="geometry" />
        </mxCell>
        <mxCell id="c6H3qvOc2Wh3on1caGfx-45" value="Exposure" style="text;html=1;align=center;verticalAlign=middle;whiteSpace=wrap;rounded=0;fontSize=18;fontStyle=1;fontFamily=Maven Pro;fontSource=https%3A%2F%2Ffonts.googleapis.com%2Fcss%3Ffamily%3DMaven%2BPro;" parent="1" vertex="1">
          <mxGeometry x="175" y="280" width="60" height="30" as="geometry" />
        </mxCell>
        <mxCell id="c6H3qvOc2Wh3on1caGfx-46" value="Reference" style="text;html=1;align=center;verticalAlign=middle;whiteSpace=wrap;rounded=0;fontSize=18;fontStyle=1;fontFamily=Maven Pro;fontSource=https%3A%2F%2Ffonts.googleapis.com%2Fcss%3Ffamily%3DMaven%2BPro;" parent="1" vertex="1">
          <mxGeometry x="177" y="561" width="60" height="30" as="geometry" />
        </mxCell>
        <mxCell id="c6H3qvOc2Wh3on1caGfx-47" value="Outcome" style="text;html=1;align=center;verticalAlign=middle;whiteSpace=wrap;rounded=0;fontSize=18;fontStyle=1;fontFamily=Maven Pro;fontSource=https%3A%2F%2Ffonts.googleapis.com%2Fcss%3Ffamily%3DMaven%2BPro;" parent="1" vertex="1">
          <mxGeometry x="176" y="420" width="60" height="30" as="geometry" />
        </mxCell>
        <mxCell id="c6H3qvOc2Wh3on1caGfx-48" value="Report" style="text;html=1;align=center;verticalAlign=middle;whiteSpace=wrap;rounded=0;fontSize=18;fontStyle=1;fontFamily=Maven Pro;fontSource=https%3A%2F%2Ffonts.googleapis.com%2Fcss%3Ffamily%3DMaven%2BPro;" parent="1" vertex="1">
          <mxGeometry x="963" y="346" width="60" height="30" as="geometry" />
        </mxCell>
        <mxCell id="c6H3qvOc2Wh3on1caGfx-49" value="Analysis Results" style="text;html=1;align=center;verticalAlign=middle;whiteSpace=wrap;rounded=0;fontSize=18;fontStyle=1;fontFamily=Maven Pro;fontSource=https%3A%2F%2Ffonts.googleapis.com%2Fcss%3Ffamily%3DMaven%2BPro;" parent="1" vertex="1">
          <mxGeometry x="967" y="500" width="60" height="30" as="geometry" />
        </mxCell>
        <mxCell id="c6H3qvOc2Wh3on1caGfx-129" value="" style="endArrow=none;html=1;rounded=1;strokeWidth=10;fontSize=16;entryX=0;entryY=0.5;entryDx=0;entryDy=0;fillColor=#f8cecc;strokeColor=#b85450;" parent="1" target="c6H3qvOc2Wh3on1caGfx-5" edge="1">
          <mxGeometry width="50" height="50" relative="1" as="geometry">
            <mxPoint x="346" y="330" as="sourcePoint" />
            <mxPoint x="376" y="370" as="targetPoint" />
            <Array as="points">
              <mxPoint x="346" y="380" />
            </Array>
          </mxGeometry>
        </mxCell>
        <mxCell id="c6H3qvOc2Wh3on1caGfx-130" value="" style="endArrow=none;html=1;rounded=1;strokeWidth=10;fontSize=16;fillColor=#f8cecc;strokeColor=#b85450;" parent="1" target="c6H3qvOc2Wh3on1caGfx-5" edge="1">
          <mxGeometry width="50" height="50" relative="1" as="geometry">
            <mxPoint x="346" y="430" as="sourcePoint" />
            <mxPoint x="374" y="391" as="targetPoint" />
            <Array as="points">
              <mxPoint x="346" y="380" />
            </Array>
          </mxGeometry>
        </mxCell>
        <mxCell id="c6H3qvOc2Wh3on1caGfx-5" value="" style="ellipse;whiteSpace=wrap;html=1;aspect=fixed;rounded=1;rotation=0;strokeWidth=5;fillColor=#FFFFFF;strokeColor=#000000;" parent="1" vertex="1">
          <mxGeometry x="394" y="360" width="40" height="40" as="geometry" />
        </mxCell>
        <mxCell id="c6H3qvOc2Wh3on1caGfx-138" value="" style="endArrow=none;html=1;rounded=1;strokeWidth=10;fontSize=16;fillColor=#f8cecc;strokeColor=#b85450;" parent="1" edge="1">
          <mxGeometry width="50" height="50" relative="1" as="geometry">
            <mxPoint x="918" y="308" as="sourcePoint" />
            <mxPoint x="858" y="386" as="targetPoint" />
            <Array as="points">
              <mxPoint x="858" y="308" />
            </Array>
          </mxGeometry>
        </mxCell>
        <mxCell id="c6H3qvOc2Wh3on1caGfx-140" value="" style="endArrow=none;html=1;rounded=1;strokeWidth=10;fontSize=16;fillColor=#f8cecc;strokeColor=#b85450;" parent="1" edge="1">
          <mxGeometry width="50" height="50" relative="1" as="geometry">
            <mxPoint x="858" y="397" as="sourcePoint" />
            <mxPoint x="918" y="447" as="targetPoint" />
            <Array as="points">
              <mxPoint x="858" y="447" />
            </Array>
          </mxGeometry>
        </mxCell>
        <mxCell id="c6H3qvOc2Wh3on1caGfx-24" value="" style="endArrow=none;html=1;rounded=1;strokeWidth=10;strokeColor=default;" parent="1" edge="1">
          <mxGeometry width="50" height="50" relative="1" as="geometry">
            <mxPoint x="919" y="289" as="sourcePoint" />
            <mxPoint x="919" y="329" as="targetPoint" />
            <Array as="points">
              <mxPoint x="919" y="309.5" />
            </Array>
          </mxGeometry>
        </mxCell>
        <mxCell id="c6H3qvOc2Wh3on1caGfx-137" value="" style="endArrow=none;html=1;rounded=1;strokeWidth=10;strokeColor=default;" parent="1" edge="1">
          <mxGeometry width="50" height="50" relative="1" as="geometry">
            <mxPoint x="918" y="428" as="sourcePoint" />
            <mxPoint x="918" y="468" as="targetPoint" />
            <Array as="points">
              <mxPoint x="918" y="448.5" />
            </Array>
          </mxGeometry>
        </mxCell>
        <mxCell id="GATRycQ4i8ZgzDv3u5-X-19" value="Filter" style="text;html=1;align=center;verticalAlign=middle;whiteSpace=wrap;rounded=0;fontSize=18;fontStyle=1;fontFamily=Maven Pro;fontSource=https%3A%2F%2Ffonts.googleapis.com%2Fcss%3Ffamily%3DMaven%2BPro;" parent="1" vertex="1">
          <mxGeometry x="490" y="400" width="60" height="30" as="geometry" />
        </mxCell>
        <mxCell id="GATRycQ4i8ZgzDv3u5-X-20" value="" style="ellipse;whiteSpace=wrap;html=1;aspect=fixed;rounded=1;rotation=0;strokeWidth=5;fillColor=#FFFFFF;strokeColor=#000000;" parent="1" vertex="1">
          <mxGeometry x="500" y="360" width="40" height="40" as="geometry" />
        </mxCell>
      </root>
    </mxGraphModel>
  </diagram>
</mxfile>
